<?xml version="1.0" standalone="no"?>
<!DOCTYPE svg PUBLIC "-//W3C//DTD SVG 20010904//EN"
 "http://www.w3.org/TR/2001/REC-SVG-20010904/DTD/svg10.dtd">
<svg version="1.0" xmlns="http://www.w3.org/2000/svg"
 width="800.000000pt" height="800.000000pt" viewBox="0 0 800.000000 800.000000"
 preserveAspectRatio="xMidYMid meet">

<g transform="translate(0.000000,800.000000) scale(0.100000,-0.100000)"
fill="#fefefe" stroke="none">
<path d="M3940 7381 c-77 -54 -180 -166 -213 -233 -53 -106 -71 -223 -46 -312
20 -72 -26 -74 -105 -5 -69 61 -80 87 -72 181 4 45 2 95 -4 116 -13 52 -72
118 -131 148 -53 26 -167 59 -176 50 -7 -6 37 -45 52 -46 6 0 37 -24 71 -54
87 -78 169 -206 132 -206 -7 0 -26 21 -43 48 -32 51 -182 212 -197 212 -6 0
-23 9 -40 21 -36 26 -44 20 -25 -18 8 -15 22 -53 31 -83 24 -83 41 -98 154
-135 60 -19 132 -81 132 -112 0 -26 -41 -63 -70 -63 -13 0 -51 15 -84 34 -91
51 -218 83 -180 46 5 -5 59 -25 119 -45 137 -46 281 -117 406 -200 100 -67
274 -217 321 -276 l26 -34 51 57 c169 187 445 364 709 453 59 20 111 40 116
45 38 37 -89 5 -181 -46 -73 -40 -102 -42 -132 -10 -46 49 8 117 123 156 96
32 119 55 150 151 15 45 25 84 22 86 -2 2 -32 -16 -68 -41 -70 -49 -145 -125
-196 -199 -30 -45 -59 -57 -45 -19 27 72 133 187 224 244 63 38 53 45 -32 23
-89 -23 -151 -58 -193 -107 -46 -53 -59 -101 -50 -187 9 -92 -5 -129 -68 -186
-85 -77 -128 -73 -107 9 35 138 -28 320 -153 445 -44 44 -159 132 -170 130 -2
0 -28 -17 -58 -38z m104 -180 c103 -140 132 -315 76 -464 -21 -57 -102 -177
-119 -177 -17 0 -100 120 -121 176 -56 150 -27 325 76 465 20 27 39 49 44 49
5 0 24 -22 44 -49z"/>
<path d="M2170 7179 c0 -24 125 -222 163 -257 14 -13 43 -26 66 -29 51 -7 93
-46 89 -81 -3 -25 -3 -25 -128 -27 -137 -2 -205 -17 -370 -80 -64 -25 -122
-39 -189 -46 -186 -20 -239 -43 -288 -126 -23 -39 -28 -60 -28 -113 0 -86 11
-126 30 -110 10 9 12 28 8 80 -6 76 11 143 47 175 32 29 42 9 19 -37 -20 -39
-39 -148 -26 -148 4 0 18 18 32 40 20 32 25 53 25 103 0 49 4 68 18 80 21 19
48 22 57 7 3 -5 15 -10 25 -10 10 0 22 -5 25 -10 20 -32 -406 -602 -518 -694
-43 -35 -172 -106 -193 -106 -24 0 -73 -57 -82 -96 -6 -21 -13 -76 -16 -121
-5 -81 -5 -83 17 -83 26 0 124 44 151 68 28 26 55 86 77 170 11 42 30 93 43
112 35 53 138 150 158 150 17 0 24 -20 12 -33 -4 -4 -8 -50 -8 -104 -2 -82 -8
-114 -36 -197 -38 -111 -58 -139 -229 -316 -199 -205 -265 -316 -298 -499 -9
-50 -19 -58 -84 -66 -25 -3 -70 -20 -100 -38 -45 -27 -59 -44 -94 -109 -23
-43 -52 -90 -66 -104 l-24 -27 40 8 c106 19 196 90 230 183 22 58 31 70 46 55
19 -19 -17 -107 -68 -163 -59 -66 -114 -97 -199 -113 l-69 -13 40 -12 c56 -17
182 -15 243 3 32 10 67 30 92 54 l40 38 0 111 c0 104 1 112 26 141 14 17 34
31 45 31 16 0 19 7 19 49 0 60 62 191 91 191 24 0 66 -52 80 -100 10 -31 9
-51 -5 -104 -23 -95 -8 -116 81 -116 89 0 171 53 203 130 16 38 8 47 -25 32
-14 -7 -34 -12 -45 -12 -30 0 -79 48 -86 85 -6 31 -10 35 -50 41 -64 9 -88 42
-81 113 8 73 44 142 127 241 100 118 96 115 113 102 10 -9 14 -35 14 -90 0
-100 21 -176 84 -314 70 -150 76 -210 30 -303 -54 -108 -143 -166 -257 -166
-106 0 -207 61 -246 149 -20 44 -38 55 -38 22 0 -38 103 -223 158 -281 59 -64
147 -114 220 -125 41 -6 44 -6 40 16 -2 16 -15 27 -47 39 -24 9 -50 25 -58 37
-12 18 -11 24 7 46 10 14 34 28 51 32 74 15 176 111 255 242 11 18 12 18 33 0
12 -11 42 -54 68 -95 53 -88 67 -164 40 -218 -19 -36 -81 -80 -124 -89 -54
-11 -123 5 -149 34 -18 18 -28 22 -35 15 -8 -8 0 -23 27 -53 61 -68 127 -91
203 -70 57 15 127 81 143 132 6 22 18 42 26 45 31 13 142 -135 142 -189 0 -31
-223 -136 -415 -195 -105 -32 -129 -25 -232 69 -156 143 -243 183 -393 183
-84 0 -102 -3 -152 -28 -67 -33 -111 -80 -147 -157 -23 -49 -26 -67 -26 -165
0 -99 3 -117 28 -175 16 -36 34 -77 40 -92 9 -21 7 -47 -7 -117 -27 -131 -19
-307 18 -416 74 -218 211 -356 509 -516 62 -33 126 -74 142 -90 28 -27 30 -34
28 -97 -1 -68 5 -82 39 -82 15 0 17 9 15 52 -3 67 9 70 93 21 96 -57 193 -156
232 -238 60 -129 48 -291 -29 -375 -19 -22 -43 -40 -52 -40 -33 0 -138 126
-190 229 -46 89 -62 261 -25 261 7 0 36 -17 64 -37 40 -30 49 -42 44 -58 -25
-80 -15 -146 34 -219 45 -69 66 -72 81 -12 28 112 5 218 -54 245 -16 7 -52 32
-79 54 -73 61 -111 77 -181 77 -98 0 -164 -52 -186 -147 -25 -107 28 -280 109
-360 52 -51 105 -73 178 -73 66 0 77 -7 88 -54 4 -18 34 -56 72 -92 36 -35 64
-71 64 -82 0 -29 27 -99 50 -133 45 -62 196 -119 317 -119 28 0 59 -3 67 -6 9
-3 35 -43 58 -88 67 -130 138 -192 348 -309 36 -20 106 -70 155 -112 121 -102
182 -133 282 -141 63 -5 85 -3 111 10 28 14 32 22 32 57 0 23 -9 72 -21 110
-24 78 -18 107 26 149 25 24 24 24 196 4 42 -5 64 -2 87 10 62 32 65 79 9 144
-44 50 -61 90 -46 108 40 49 176 -50 238 -173 33 -66 29 -79 -34 -102 -31 -12
-58 -21 -61 -21 -17 0 -176 -87 -211 -116 -46 -38 -83 -105 -83 -151 0 -40 32
-79 77 -94 70 -23 345 11 570 71 150 40 236 40 386 0 239 -64 512 -95 579 -67
51 21 72 57 65 109 -14 104 -117 183 -349 268 -46 17 -58 26 -58 43 0 77 156
247 227 247 52 0 47 -56 -12 -121 -58 -65 -56 -112 7 -145 23 -12 45 -15 87
-10 172 20 171 20 196 -4 44 -42 50 -71 26 -149 -12 -38 -21 -87 -21 -110 0
-35 4 -43 30 -56 37 -19 102 -19 171 1 71 21 116 47 223 133 49 40 144 102
210 139 152 84 232 160 294 279 47 91 29 81 180 98 74 8 170 40 216 73 44 30
83 97 93 157 5 32 19 52 69 101 36 35 66 72 70 90 11 47 22 54 88 54 150 1
261 122 287 316 13 99 2 148 -44 201 -40 45 -82 63 -150 63 -61 0 -103 -19
-173 -78 -27 -22 -61 -45 -76 -51 -40 -15 -60 -53 -65 -125 -6 -65 11 -161 29
-172 13 -9 51 38 84 103 21 42 25 62 21 105 -2 29 -7 62 -11 73 -5 16 3 28 44
58 28 20 57 37 64 37 40 0 20 -177 -33 -285 -35 -70 -141 -201 -172 -210 -43
-14 -102 68 -124 172 -38 179 66 370 265 486 85 49 96 46 93 -22 -2 -51 -1
-53 20 -47 12 3 25 6 30 6 4 0 5 27 2 60 -9 99 1 111 180 205 309 162 463 335
521 582 23 100 20 253 -6 351 l-22 80 36 74 c45 94 59 162 54 257 -8 133 -71
236 -176 288 -51 25 -67 28 -157 28 -85 -1 -109 -5 -163 -27 -77 -33 -170 -99
-237 -168 -57 -59 -92 -80 -132 -80 -96 1 -503 177 -503 218 0 52 112 210 141
200 7 -2 17 -22 24 -44 49 -167 262 -202 362 -61 25 34 19 61 -6 29 -9 -12
-29 -26 -44 -31 -40 -15 -122 -14 -160 3 -74 32 -116 116 -96 191 18 64 114
210 138 210 8 0 39 -38 70 -84 62 -93 124 -144 198 -162 42 -11 73 -39 73 -67
0 -24 -48 -62 -78 -62 -28 0 -42 -14 -42 -42 0 -16 77 -1 137 27 68 31 133 92
184 173 58 91 111 210 98 218 -6 3 -11 4 -12 3 -1 -2 -11 -22 -22 -44 -85
-167 -300 -205 -438 -76 -54 51 -82 97 -97 165 -14 62 -2 110 59 238 59 121
81 205 81 305 0 78 6 103 24 103 17 0 166 -172 200 -232 23 -39 30 -66 34
-122 4 -70 3 -73 -23 -94 -17 -14 -42 -22 -65 -22 -36 0 -38 -2 -44 -38 -8
-55 -44 -85 -93 -80 -21 3 -46 8 -55 12 -49 22 10 -86 69 -128 31 -21 58 -31
97 -34 108 -9 138 17 112 95 -30 86 -16 152 43 207 33 32 40 30 67 -16 37 -63
55 -112 58 -155 2 -40 6 -48 26 -53 13 -3 33 -18 44 -33 18 -25 21 -42 21
-144 l0 -114 37 -34 c20 -19 59 -41 89 -49 62 -19 187 -21 244 -4 l40 12 -50
7 c-79 13 -136 39 -188 88 -59 55 -95 114 -99 161 -4 53 21 44 44 -15 40 -101
125 -171 233 -190 l40 -8 -26 29 c-15 16 -40 56 -57 89 -51 101 -139 164 -229
165 -23 0 -44 4 -47 8 -3 5 -10 39 -16 76 -24 149 -93 265 -273 454 -194 205
-212 228 -248 339 -27 80 -33 116 -34 196 -1 54 -5 100 -9 104 -13 13 -5 33
12 33 25 0 133 -106 166 -162 14 -24 32 -73 39 -108 15 -71 45 -136 73 -161
30 -27 121 -69 146 -68 15 0 18 3 8 6 -33 12 -64 52 -106 136 -25 49 -63 108
-85 132 -42 45 -38 70 6 41 36 -24 70 -73 114 -166 40 -85 75 -139 85 -130 10
11 -13 188 -28 218 -18 35 -29 42 -133 88 -90 40 -152 90 -250 207 -165 197
-411 546 -398 567 3 5 15 10 25 10 10 0 22 5 25 10 10 16 40 12 58 -8 12 -13
17 -37 17 -80 0 -61 28 -132 52 -132 17 0 1 98 -22 138 -24 40 -14 66 16 41
37 -30 56 -97 53 -178 -3 -61 -1 -76 11 -76 8 0 17 16 23 40 20 94 -19 203
-91 250 -44 28 -92 40 -223 54 -67 7 -125 21 -189 46 -165 63 -233 78 -370 80
-125 2 -125 2 -128 27 -4 31 41 78 75 78 36 0 77 25 110 67 42 53 133 205 133
220 0 23 -30 14 -89 -26 -84 -58 -164 -149 -207 -238 -46 -95 -42 -89 -56 -75
-29 29 90 228 179 296 61 47 51 57 -32 31 -54 -18 -126 -70 -146 -106 -5 -11
-16 -59 -23 -108 -8 -49 -22 -101 -32 -116 -30 -46 -272 -241 -361 -291 -47
-26 -83 -53 -86 -65 -3 -10 -10 -19 -15 -19 -16 0 -62 60 -62 80 0 24 -16 34
-24 15 -11 -30 -26 -14 -26 28 0 100 71 302 141 402 22 32 38 59 36 62 -2 2
-32 -19 -65 -47 -135 -113 -182 -248 -137 -400 29 -99 36 -144 30 -190 -10
-65 -47 -131 -103 -181 -26 -24 -51 -52 -55 -61 -9 -24 -23 -23 -41 4 -25 35
-19 79 18 140 41 69 56 110 56 158 0 43 -24 130 -52 185 l-21 39 -24 -29 c-13
-17 -42 -66 -64 -111 -36 -71 -41 -89 -41 -150 0 -60 5 -80 41 -153 23 -47 41
-99 41 -116 0 -42 -39 -118 -96 -185 -25 -30 -57 -72 -70 -93 l-24 -37 -41 21
c-59 29 -126 95 -139 135 -16 46 -5 86 35 134 51 61 52 71 6 162 -31 62 -41
93 -41 130 0 35 -4 48 -12 46 -25 -8 -89 -104 -104 -156 -19 -63 -13 -108 22
-171 41 -75 14 -81 -72 -16 -32 24 -66 44 -74 44 -8 0 -42 -20 -74 -44 -86
-65 -113 -59 -72 16 33 61 40 102 26 160 -12 49 -90 169 -110 169 -5 0 -10
-22 -10 -49 0 -36 -10 -67 -40 -127 -46 -91 -46 -109 5 -165 57 -63 56 -120
-1 -189 -32 -38 -110 -90 -133 -89 -9 0 -36 27 -61 59 -157 208 -163 228 -100
358 37 77 42 95 42 156 0 60 -5 79 -41 150 -22 44 -51 94 -64 111 l-24 29 -21
-39 c-28 -55 -52 -142 -52 -185 0 -48 15 -89 56 -158 37 -61 43 -105 18 -140
-18 -27 -32 -28 -41 -4 -4 9 -29 37 -55 61 -27 24 -61 67 -76 95 -22 43 -26
64 -26 134 0 45 -4 82 -8 82 -5 0 -12 10 -17 23 -8 20 -10 18 -20 -20 -16 -59
-81 -106 -81 -58 0 7 -33 31 -74 54 -113 62 -339 246 -376 306 -10 16 -21 59
-25 95 -10 97 -22 126 -70 168 -44 39 -137 77 -171 70 -13 -2 -6 -11 24 -32
23 -15 63 -54 88 -85 54 -64 119 -193 110 -217 -9 -24 -19 -12 -60 71 -21 42
-62 102 -94 136 -84 91 -202 166 -202 128z m259 -458 c36 -50 28 -90 -29 -146
-87 -86 -112 -181 -71 -270 22 -48 71 -96 78 -77 3 7 21 43 41 80 34 62 37 72
35 146 -1 43 -6 83 -12 89 -19 19 -55 -80 -59 -161 -4 -61 -7 -73 -21 -70 -21
4 -28 105 -11 162 15 50 50 104 73 112 10 3 17 16 17 32 1 45 36 112 60 112
26 0 85 -24 94 -39 4 -6 0 -43 -8 -83 -44 -221 -19 -430 74 -623 57 -118 121
-196 337 -409 120 -118 194 -198 191 -207 -8 -22 -92 -15 -183 15 -145 49
-506 230 -664 333 -146 95 -242 209 -258 307 -5 31 -2 37 28 56 25 16 45 20
77 17 52 -6 71 -22 126 -107 49 -75 111 -116 198 -130 64 -10 77 -1 50 37 -10
15 -33 55 -50 89 -39 78 -75 120 -123 144 -33 18 -69 26 -69 17 0 -2 21 -26
48 -53 56 -60 98 -134 88 -159 -9 -23 -27 -8 -62 53 -41 72 -92 120 -146 138
-47 15 -52 15 -117 -7 -38 -12 -75 -19 -84 -16 -21 8 -27 53 -27 226 0 171
-12 216 -64 262 -46 40 -24 76 24 41 l28 -21 75 38 c77 39 160 61 229 61 39 0
46 8 27 27 -6 6 -8 16 -5 22 10 15 40 -2 65 -38z m3207 38 c3 -6 1 -16 -5 -22
-19 -19 -12 -27 27 -27 69 0 152 -22 229 -61 l75 -38 28 21 c48 35 70 -1 24
-41 -52 -46 -64 -91 -64 -262 0 -173 -6 -218 -27 -226 -9 -3 -46 4 -84 16 -66
22 -70 22 -118 6 -55 -18 -116 -76 -150 -142 -27 -53 -48 -71 -57 -48 -10 25
32 99 89 159 26 27 47 51 47 53 0 2 -7 3 -15 3 -29 0 -93 -39 -122 -74 -36
-45 -126 -213 -116 -219 17 -11 116 14 165 40 39 21 62 44 94 93 60 93 76 105
139 105 60 0 95 -23 95 -62 0 -84 -116 -222 -270 -323 -126 -82 -542 -289
-654 -325 -98 -32 -176 -39 -184 -16 -3 8 79 96 204 220 215 213 278 292 334
415 85 187 109 444 59 630 -13 49 -7 64 36 81 57 25 74 20 95 -27 11 -24 20
-55 20 -70 0 -16 7 -29 18 -32 45 -15 85 -120 80 -211 -2 -47 -7 -60 -20 -63
-16 -3 -18 5 -18 60 -1 64 -35 173 -55 173 -6 0 -14 -33 -19 -73 l-9 -72 43
-88 c24 -48 45 -89 47 -91 7 -10 57 47 74 84 41 89 16 184 -71 270 -62 61 -67
100 -19 158 32 39 43 44 55 26z m-2785 -216 c245 -184 615 -593 538 -593 -6 0
-33 16 -60 36 -70 51 -137 74 -215 74 -64 0 -194 -27 -194 -41 0 -4 12 -14 26
-24 15 -9 60 -48 100 -86 66 -61 118 -90 159 -89 6 1 37 14 70 30 110 55 185
34 296 -82 83 -87 115 -147 130 -248 23 -149 49 -241 105 -367 121 -276 146
-356 145 -472 0 -158 -67 -275 -194 -343 -41 -23 -46 -23 -357 -20 -173 2
-344 8 -380 13 -125 19 -236 93 -279 184 -30 64 -27 99 12 139 27 30 71 49
297 130 146 53 271 96 277 96 19 0 27 -47 13 -79 -18 -45 -50 -68 -139 -106
-46 -19 -89 -39 -98 -46 -27 -23 -82 -153 -70 -165 3 -3 15 0 27 6 12 7 63 18
113 26 108 18 160 42 176 83 12 29 7 71 -8 71 -4 0 -18 -11 -31 -25 -24 -25
-45 -32 -54 -17 -2 4 20 39 50 77 68 87 109 192 125 314 8 63 16 95 26 98 11
4 7 13 -15 37 -18 19 -40 61 -56 108 -29 88 -92 185 -136 211 -29 18 -39 40
-21 51 5 3 26 -1 46 -10 34 -14 39 -14 53 0 13 13 11 15 -24 21 -166 26 -284
87 -407 210 -143 142 -227 328 -227 503 0 61 3 73 20 82 19 10 19 12 3 37 -16
24 -16 30 1 112 19 95 24 122 25 134 2 20 39 0 132 -70z m2430 70 c1 -12 6
-39 25 -134 16 -80 17 -89 2 -111 -15 -23 -15 -26 4 -42 19 -17 20 -26 15
-110 -6 -101 -36 -202 -88 -295 -41 -73 -57 -93 -137 -174 -104 -106 -230
-177 -364 -207 -32 -7 -58 -17 -58 -21 0 -17 19 -18 49 -3 17 8 35 13 41 9 16
-10 11 -34 -10 -45 -16 -9 -57 -55 -122 -141 -10 -13 -23 -50 -29 -82 -15 -73
-44 -109 -139 -172 -83 -55 -114 -90 -152 -172 -39 -81 -47 -174 -23 -263 23
-86 23 -94 3 -98 -28 -6 -61 98 -62 195 -1 46 -4 83 -7 83 -4 0 -23 -18 -42
-39 -47 -52 -56 -99 -32 -166 21 -59 84 -155 103 -155 17 0 150 128 168 162
26 50 18 93 -25 136 -56 55 -61 83 -26 149 33 64 152 206 168 200 7 -2 16 -30
20 -63 23 -169 56 -255 135 -353 28 -35 49 -68 46 -72 -9 -16 -30 -10 -54 16
-13 14 -27 25 -31 25 -15 0 -20 -42 -8 -71 16 -41 68 -65 176 -83 50 -8 101
-19 113 -26 12 -6 24 -9 27 -7 10 10 -31 118 -56 147 -16 19 -58 43 -110 65
-91 37 -123 61 -141 106 -14 32 -6 79 12 79 7 0 132 -43 278 -96 226 -81 270
-100 298 -130 17 -18 32 -43 32 -55 0 -91 -88 -196 -205 -244 -70 -28 -72 -28
-385 -37 -173 -5 -337 -6 -365 -3 -135 17 -248 140 -273 296 -17 108 25 294
99 441 55 109 109 258 124 345 44 244 55 269 160 376 109 112 181 131 293 77
49 -24 70 -29 97 -24 40 7 103 50 146 98 15 18 46 45 69 61 22 15 40 31 40 34
0 13 -129 41 -187 41 -81 0 -149 -22 -215 -70 -120 -86 -103 -28 44 146 180
215 553 532 559 477z m-3406 -82 c90 -42 116 -99 124 -281 5 -102 12 -145 26
-174 16 -33 17 -43 6 -70 -55 -134 -74 -213 -75 -301 0 -63 5 -103 18 -135 23
-58 24 -75 7 -75 -8 0 -23 17 -33 37 -17 33 -28 40 -85 58 -142 44 -305 50
-406 15 -22 -8 -44 -12 -48 -9 -10 6 -1 245 12 349 13 98 50 179 119 258 27
32 50 63 50 68 0 5 8 9 18 9 18 0 51 -28 77 -65 14 -19 14 -18 15 12 0 24 -10
44 -36 73 l-36 40 26 31 c14 17 26 35 26 39 0 17 122 140 139 140 9 0 34 -9
56 -19z m4372 -33 c27 -29 58 -66 68 -83 10 -16 28 -40 38 -52 l20 -22 -37
-41 c-26 -29 -36 -49 -36 -73 1 -30 1 -31 15 -12 26 37 59 65 77 65 10 0 18
-4 18 -9 0 -5 23 -36 50 -68 101 -116 127 -207 132 -463 3 -124 1 -145 -12
-143 -8 2 -46 9 -85 17 -89 19 -172 20 -260 1 -129 -27 -162 -42 -183 -83 -10
-20 -25 -37 -33 -37 -17 0 -16 17 8 75 12 32 17 71 17 135 -1 88 -17 153 -75
301 -11 27 -10 37 6 70 14 29 21 72 26 174 6 142 20 193 62 239 23 25 91 60
118 61 9 0 38 -24 66 -52z m-2284 -580 c8 -13 4 -24 -19 -53 -75 -95 -76 -97
-72 -155 5 -64 38 -122 93 -159 l36 -24 42 30 c54 40 87 102 87 163 0 48 -7
62 -74 145 -23 29 -27 40 -19 53 40 65 132 -43 156 -184 15 -89 -1 -173 -52
-278 -45 -90 -117 -185 -141 -185 -22 0 -95 95 -139 181 -50 97 -68 193 -53
283 23 140 115 248 155 183z m-1806 -77 c45 -48 107 -105 137 -125 101 -67
118 -112 91 -246 -22 -106 -13 -169 37 -246 l31 -49 19 60 c25 83 23 122 -12
208 -41 103 -39 147 6 147 27 0 33 -3 509 -230 207 -98 352 -173 370 -191 25
-25 30 -37 30 -78 0 -40 -6 -57 -31 -88 -63 -80 -198 -117 -277 -76 -17 9 -43
19 -57 23 -23 6 -24 11 -25 72 0 90 -32 137 -130 190 -100 54 -114 51 -65 -14
64 -85 98 -188 61 -188 -5 0 -30 42 -55 93 -25 50 -55 103 -66 117 l-21 25 4
-85 c4 -104 29 -158 89 -197 36 -24 54 -28 127 -31 93 -4 121 -17 121 -58 0
-26 -34 -54 -66 -54 -32 0 -128 -36 -229 -85 -50 -25 -98 -45 -107 -45 -9 0
-24 13 -35 29 -10 16 -63 84 -118 152 -248 308 -400 602 -446 866 -15 88 -5
193 19 193 4 0 44 -40 89 -89z m3796 53 c14 -48 0 -172 -33 -289 -61 -218
-208 -478 -421 -743 -55 -69 -107 -136 -116 -149 -8 -12 -22 -23 -31 -23 -9 0
-57 20 -107 44 -95 47 -202 86 -232 86 -29 0 -63 29 -63 54 0 41 28 54 121 58
73 3 91 7 127 31 51 33 80 87 87 164 3 32 8 70 10 86 3 15 1 27 -4 27 -13 0
-79 -105 -104 -166 -23 -60 -43 -77 -53 -50 -9 24 30 113 76 174 49 65 35 68
-65 14 -98 -53 -130 -100 -130 -190 -1 -61 -2 -66 -25 -72 -14 -4 -40 -14 -57
-23 -79 -41 -214 -4 -277 76 -25 31 -31 48 -31 88 0 41 5 53 30 78 36 35 841
421 878 421 46 0 48 -43 7 -147 -35 -86 -37 -125 -12 -208 l19 -60 31 49 c44
69 59 143 43 215 -36 159 -25 195 84 275 39 30 105 90 145 135 41 45 79 80 84
78 5 -2 14 -17 19 -33z m-4773 -80 c0 -4 -18 -26 -40 -50 -22 -24 -59 -82 -82
-129 -24 -50 -54 -95 -69 -106 -26 -19 -25 -14 24 93 35 77 65 126 94 155 37
38 73 56 73 37z m530 -267 c92 -31 93 -54 3 -53 -64 1 -72 -1 -121 -37 -28
-21 -52 -43 -52 -48 0 -20 82 -62 130 -67 54 -5 43 -12 144 96 33 36 45 42 78
42 72 0 91 -16 223 -189 39 -51 86 -112 106 -136 57 -68 334 -437 347 -462 17
-31 15 -85 -4 -112 -13 -18 -24 -22 -58 -20 -22 1 -49 1 -58 0 -25 -2 -48 -53
-59 -129 -12 -81 -36 -138 -83 -189 -20 -22 -36 -43 -36 -45 0 -9 123 20 183
42 32 12 73 36 92 54 40 38 44 68 20 136 -22 63 -19 88 16 121 17 16 37 29 43
29 19 0 103 -121 162 -233 60 -114 68 -158 32 -180 -36 -22 -686 -85 -725 -70
-7 3 -13 13 -13 24 0 49 -23 122 -40 126 -41 11 -28 33 49 87 124 87 201 212
223 363 27 183 -57 387 -186 456 -38 20 -55 22 -246 22 -197 0 -207 1 -255 25
-65 31 -154 121 -185 185 -14 31 -24 69 -24 100 l-1 50 50 17 c70 24 166 22
245 -5z m4817 8 c71 -21 76 -30 58 -99 -20 -77 -56 -136 -116 -190 -99 -89
-190 -113 -359 -95 -122 13 -183 8 -238 -20 -126 -64 -210 -274 -183 -458 22
-149 99 -273 223 -360 78 -55 91 -75 51 -81 -18 -3 -23 -15 -34 -75 -6 -40
-15 -75 -19 -80 -15 -17 -692 47 -727 69 -37 23 -29 65 33 185 53 102 135 218
160 226 6 2 26 -10 44 -27 35 -33 36 -48 10 -141 -7 -25 -10 -57 -6 -72 13
-53 138 -117 261 -134 l50 -6 -39 43 c-49 54 -73 110 -85 192 -11 76 -34 127
-59 129 -9 1 -36 1 -58 0 -34 -2 -45 2 -58 20 -19 27 -21 81 -4 112 14 26 261
357 330 442 27 33 78 98 114 145 114 148 136 172 178 190 55 24 88 16 134 -32
20 -22 49 -53 64 -69 20 -22 35 -29 65 -29 43 0 111 28 132 54 13 15 10 20
-20 46 -58 50 -95 63 -156 56 -49 -6 -54 -4 -51 11 4 26 118 62 194 63 33 0
83 -7 111 -15z m-4966 -359 c87 -74 108 -110 89 -156 -12 -30 -72 -90 -90 -90
-15 0 -49 50 -69 105 -40 105 -45 205 -12 205 3 0 40 -29 82 -64z m4978 50
c29 -35 -48 -286 -90 -294 -21 -4 -75 42 -95 80 -26 51 -11 82 79 159 45 38
85 69 88 69 4 0 12 -6 18 -14z m-4484 -151 c87 -24 161 -98 185 -184 28 -100
-4 -276 -71 -386 -37 -61 -160 -185 -184 -185 -16 0 -330 464 -347 512 -17 48
-2 93 48 143 33 32 54 45 74 45 43 0 56 -30 35 -82 -15 -37 -14 -43 2 -76 10
-21 51 -63 92 -96 41 -33 88 -82 104 -108 17 -26 32 -48 35 -48 2 0 3 33 0 73
-7 103 -42 176 -121 250 -48 45 -58 60 -47 67 33 21 135 -75 177 -167 17 -38
28 -83 33 -137 l6 -81 29 60 c47 102 44 189 -10 253 -26 31 -66 51 -159 78
-33 10 -71 28 -85 41 -26 23 -26 23 -6 38 23 18 125 13 210 -10z m4106 9 c21
-25 -22 -55 -127 -88 -67 -22 -97 -37 -121 -62 -62 -66 -68 -152 -18 -259 l29
-60 6 81 c5 54 16 99 33 137 42 92 144 188 177 167 11 -7 1 -22 -47 -67 -79
-74 -114 -147 -121 -250 -3 -40 -2 -73 1 -73 3 0 17 20 30 43 25 42 45 62 151
150 56 47 69 85 47 144 -12 34 -12 44 -2 57 25 30 68 19 115 -28 46 -46 62
-87 51 -135 -9 -40 -328 -515 -349 -519 -10 -2 -47 26 -95 75 -122 123 -178
260 -169 418 9 160 97 253 261 274 101 14 133 12 148 -5z m-5098 -837 c90 -41
198 -154 178 -185 -8 -13 -145 -33 -159 -23 -4 3 -15 23 -24 44 -23 49 -70 77
-131 77 -92 0 -133 -79 -92 -177 16 -38 20 -83 7 -83 -5 0 -43 -32 -86 -71
-66 -62 -79 -70 -91 -58 -37 37 -58 227 -33 300 28 83 104 156 197 191 65 25
161 18 234 -15z m6145 4 c59 -30 129 -102 153 -156 31 -69 34 -148 10 -240
-31 -115 -38 -119 -103 -54 -29 30 -71 68 -93 85 l-39 30 22 52 c32 74 29 123
-9 161 -25 26 -38 31 -77 31 -63 0 -104 -27 -132 -85 l-23 -47 -66 7 c-116 11
-121 18 -71 90 43 63 123 121 200 146 48 16 182 4 228 -20z m-5176 -141 c18
-45 22 -75 22 -170 1 -106 -1 -119 -27 -172 -82 -166 -264 -246 -403 -177 -59
29 -69 54 -24 64 31 7 50 30 50 63 0 39 -31 122 -46 122 -18 0 -34 -40 -34
-83 0 -41 -25 -77 -52 -77 -47 0 -138 141 -154 238 -8 49 14 95 53 110 43 17
294 45 305 34 6 -6 4 -21 -6 -40 -37 -72 -14 -138 85 -246 l63 -69 13 29 c31
73 12 130 -67 205 -46 42 -60 62 -60 84 0 39 63 98 124 115 26 7 59 26 74 41
l27 29 17 -23 c10 -12 28 -47 40 -77z m4025 72 c13 -18 40 -34 76 -45 72 -23
117 -66 117 -112 0 -27 -8 -40 -42 -69 -23 -20 -45 -36 -49 -36 -14 0 -49 -87
-49 -121 1 -19 6 -47 13 -63 l12 -28 66 73 c36 41 73 88 83 106 21 41 21 97
-1 134 -30 50 -13 54 149 34 157 -19 194 -32 204 -71 23 -91 -81 -304 -148
-304 -39 0 -51 16 -60 81 -9 70 -32 107 -44 73 -4 -10 -13 -34 -20 -53 -28
-69 -12 -117 41 -123 49 -5 39 -37 -20 -66 -143 -72 -330 8 -412 175 -39 81
-45 214 -13 312 23 71 54 131 68 131 5 0 17 -12 29 -28z m-2693 -47 c146 -38
250 -151 293 -318 19 -74 13 -244 -10 -320 -14 -43 -14 -48 1 -56 14 -8 14
-12 5 -22 -10 -10 -21 -6 -53 19 l-40 33 40 -81 c37 -79 38 -82 25 -120 -36
-103 -23 -255 30 -345 42 -72 29 -142 -43 -248 -41 -59 -58 -103 -93 -242 -38
-151 -61 -203 -107 -248 -60 -59 -100 -70 -214 -62 -109 8 -115 6 -186 -61
-45 -42 -79 -44 -162 -9 -99 42 -135 34 -236 -55 -55 -48 -59 -50 -118 -50
-91 -1 -133 -20 -191 -86 -140 -160 -148 -166 -202 -171 -43 -5 -59 0 -122 32
-40 21 -92 40 -116 43 -62 6 -136 -14 -192 -54 -56 -40 -67 -41 -87 -12 -24
34 -19 46 24 59 52 16 115 70 142 123 27 51 35 164 18 237 -15 66 -77 201
-121 266 -29 43 -193 213 -204 213 -3 0 -5 -8 -5 -19 0 -10 -7 -24 -16 -32
-22 -18 -36 6 -29 46 3 17 9 65 12 108 3 42 11 85 18 94 21 28 35 5 35 -59 0
-80 18 -108 137 -204 93 -75 103 -81 103 -65 0 13 -116 188 -171 257 -51 64
-59 84 -35 84 25 0 146 -156 209 -270 10 -18 20 -31 22 -28 2 2 -5 44 -17 93
l-21 90 -92 90 c-50 50 -97 103 -104 119 -18 43 -13 252 6 268 13 10 19 8 37
-13 22 -25 56 -45 56 -32 0 4 -12 24 -26 45 -18 26 -34 38 -50 38 -25 0 -35
29 -11 31 39 5 111 -5 172 -23 88 -26 155 -26 194 -2 37 24 121 102 121 113 0
14 -122 71 -154 71 -63 0 -108 -21 -172 -81 -69 -64 -100 -73 -134 -39 -21 21
-26 54 -22 145 5 109 18 137 48 98 10 -15 29 -18 126 -18 106 0 117 2 179 31
152 72 236 195 254 372 9 94 34 133 95 148 51 12 487 49 568 48 46 -1 57 -5
88 -35 41 -40 41 -70 -2 -127 -29 -37 -162 -105 -247 -124 l-47 -11 22 -24
c20 -21 20 -25 7 -50 -8 -14 -29 -35 -47 -46 -30 -18 -32 -21 -17 -37 26 -29
17 -53 -44 -112 -159 -153 -125 -388 63 -434 26 -6 28 -5 20 12 -21 44 -8 117
34 200 23 45 42 94 42 110 0 17 -15 54 -35 84 -39 61 -44 102 -19 156 36 75
150 178 212 190 38 8 54 -18 75 -119 20 -99 55 -161 107 -187 l40 -20 0 37 c0
21 7 60 15 87 21 69 7 115 -49 161 -24 19 -50 35 -59 35 -21 0 -67 21 -67 31
0 4 27 39 60 77 87 100 166 151 275 178 68 17 91 17 159 -1z m1498 -21 c75
-31 150 -87 218 -161 55 -60 61 -79 28 -92 -85 -33 -113 -49 -133 -75 -32 -44
-37 -76 -20 -132 8 -27 15 -66 15 -87 l0 -37 40 20 c49 25 87 87 102 166 22
117 28 135 53 146 33 15 95 -22 167 -100 98 -106 110 -163 53 -252 -46 -71
-45 -100 7 -197 42 -80 53 -140 34 -192 -8 -23 -7 -24 25 -17 88 17 159 112
159 213 0 84 -33 156 -101 221 -61 59 -70 83 -43 113 14 16 14 18 -8 29 -25
14 -67 59 -68 74 0 6 9 19 20 31 l20 22 -52 12 c-29 7 -89 27 -133 44 -64 26
-85 40 -112 75 -40 52 -41 81 -8 121 44 52 61 53 375 27 157 -14 297 -29 312
-35 41 -16 60 -54 75 -154 25 -173 103 -286 242 -355 73 -36 78 -37 189 -37
100 0 115 2 127 19 28 38 42 13 48 -92 7 -108 0 -144 -32 -161 -37 -20 -61
-11 -125 48 -64 60 -109 81 -172 81 -35 0 -154 -58 -153 -74 1 -21 121 -116
158 -125 39 -11 68 -6 198 28 94 25 136 25 141 -1 3 -13 -3 -18 -21 -18 -17 0
-33 -13 -56 -45 -36 -50 -28 -58 17 -20 36 30 48 31 62 5 14 -27 11 -218 -5
-255 -7 -17 -49 -64 -93 -104 -44 -40 -87 -87 -96 -106 -16 -33 -48 -167 -41
-173 2 -2 11 9 21 25 111 182 204 296 223 277 8 -7 -8 -35 -57 -100 -78 -103
-167 -242 -159 -250 8 -9 169 123 205 168 28 36 32 48 32 104 0 66 12 86 37
61 10 -10 16 -40 18 -89 2 -41 6 -89 9 -108 8 -45 -6 -69 -28 -51 -9 8 -16 22
-16 32 0 11 -2 19 -4 19 -10 0 -148 -141 -186 -190 -98 -127 -156 -291 -147
-416 8 -115 59 -187 162 -233 50 -22 52 -27 29 -59 -18 -27 -45 -28 -67 -4
-37 40 -109 67 -183 67 -62 0 -78 -4 -144 -39 -64 -33 -80 -38 -124 -33 -53 5
-61 11 -201 171 -58 66 -100 85 -191 86 -59 0 -63 2 -118 50 -101 89 -137 97
-236 55 -85 -36 -121 -33 -162 11 -56 60 -78 67 -188 59 -116 -8 -163 7 -219
70 -45 52 -66 101 -101 244 -34 136 -40 152 -93 241 -73 120 -82 175 -42 245
53 90 66 242 30 344 -13 37 -12 42 18 103 50 102 50 101 8 67 -41 -32 -76 -32
-47 0 14 15 14 21 -1 61 -20 59 -28 219 -14 295 50 269 291 416 523 319z
m-3588 -110 c10 -4 16 -18 16 -38 0 -49 28 -146 57 -195 14 -24 50 -70 79
-102 54 -59 62 -73 45 -84 -15 -9 -113 32 -178 74 -107 69 -168 144 -197 242
-15 50 -15 54 2 71 26 26 138 46 176 32z m5615 -15 c32 -11 33 -13 27 -55 -9
-70 -46 -135 -115 -205 -93 -93 -261 -173 -294 -140 -8 8 5 25 49 65 36 32 73
78 91 113 37 69 67 167 60 195 -12 44 1 51 77 45 39 -3 86 -11 105 -18z m310
-215 c97 -103 98 -115 29 -179 -60 -56 -175 -135 -196 -135 -23 0 -24 29 -2
60 12 17 21 33 19 35 -3 2 -36 -13 -74 -33 -48 -25 -78 -49 -94 -74 -25 -40
-41 -41 -41 -4 0 32 49 74 137 121 76 40 112 76 62 61 -13 -4 -66 -14 -118
-22 -137 -21 -177 -33 -222 -66 -41 -30 -69 -78 -69 -121 0 -13 14 -44 31 -70
34 -52 33 -70 -10 -120 -56 -66 -65 -166 -25 -281 27 -80 29 -121 4 -121 -30
0 -52 100 -57 255 -3 80 -9 153 -14 162 -5 9 -9 59 -9 112 0 84 2 96 20 109
12 8 34 35 49 59 36 57 78 89 159 121 83 34 163 84 242 151 36 31 75 56 87 56
14 0 46 -27 92 -76z m-6199 0 c47 -35 136 -90 199 -122 89 -44 122 -67 155
-105 22 -27 54 -63 70 -80 28 -32 28 -33 22 -122 -4 -49 -11 -151 -15 -225
-13 -196 -42 -313 -71 -284 -11 11 3 90 22 127 14 28 21 110 14 161 -4 27 -21
66 -42 95 -19 28 -34 57 -34 66 0 8 12 39 26 68 21 43 25 62 20 91 -9 48 -56
100 -109 121 -33 13 -276 64 -309 65 -22 0 -2 -22 40 -46 137 -78 181 -117
168 -151 -5 -11 -16 -4 -49 29 -44 44 -132 96 -144 85 -3 -4 0 -20 7 -37 23
-55 0 -55 -81 -1 -71 47 -169 136 -169 152 0 13 90 127 121 154 17 14 40 25
52 25 12 0 60 -30 107 -66z m6314 -242 c28 -55 40 -147 27 -222 -37 -228 -157
-372 -515 -619 -97 -67 -121 -80 -133 -69 -12 10 -14 41 -10 187 7 294 25 362
115 442 64 58 185 122 212 114 26 -8 25 -16 -8 -69 -15 -24 -36 -79 -46 -122
-10 -44 -27 -115 -37 -159 -11 -44 -30 -102 -44 -129 -14 -27 -23 -51 -20 -54
9 -9 123 107 170 173 89 125 116 204 119 344 l2 103 36 32 c102 87 110 90 132
48z m-6549 -12 c70 -48 85 -74 85 -144 0 -172 61 -314 194 -454 46 -48 87 -84
91 -80 5 4 -2 31 -14 60 -12 29 -38 116 -56 193 -19 76 -46 162 -60 191 -14
28 -25 56 -25 62 0 30 93 -5 188 -70 79 -55 127 -146 138 -266 21 -235 16
-392 -13 -392 -26 0 -312 211 -404 298 -94 89 -153 172 -196 273 -24 57 -27
77 -28 179 0 92 4 122 18 148 10 17 22 32 28 32 6 0 30 -13 54 -30z m1025
-224 c0 -15 -79 -46 -118 -46 -37 0 -21 23 29 42 55 21 89 23 89 4z m4495 3
c47 -12 74 -34 59 -48 -14 -14 -134 27 -134 44 0 18 17 19 75 4z m-4939 -1156
c22 -115 55 -199 98 -256 41 -53 7 -63 -79 -23 -141 65 -185 215 -100 342 20
31 41 54 48 51 6 -2 21 -53 33 -114z m5373 93 c28 -29 61 -116 61 -159 0 -108
-86 -210 -197 -235 -63 -14 -73 -1 -33 44 58 67 95 171 115 327 7 53 20 59 54
23z m-3103 -255 c58 -26 74 -54 74 -124 0 -47 -6 -71 -32 -119 -17 -32 -45
-69 -62 -81 -28 -20 -41 -22 -146 -19 -141 3 -223 -18 -288 -74 -107 -91 -117
-214 -26 -301 24 -24 44 -46 44 -51 0 -15 -49 -75 -77 -94 -39 -25 -66 -23
-103 9 l-32 26 7 87 c5 66 3 99 -9 140 -30 100 -18 174 50 316 56 118 100 159
182 169 66 8 81 15 139 62 90 73 194 93 279 54z m937 8 c20 -5 67 -33 104 -61
58 -43 76 -52 135 -60 88 -13 131 -49 186 -155 69 -134 86 -233 56 -333 -12
-41 -14 -74 -9 -138 7 -82 6 -84 -21 -113 -31 -32 -61 -36 -104 -14 -31 16
-80 74 -80 94 0 6 16 26 37 44 41 36 73 97 73 142 0 40 -41 124 -76 157 -16
15 -56 39 -89 55 -55 26 -71 28 -180 29 -66 1 -128 2 -137 3 -28 2 -88 61
-114 112 -31 63 -34 154 -4 191 41 53 133 72 223 47z m-486 -101 c67 -70 133
-165 133 -195 0 -16 -8 -27 -27 -35 -16 -6 -61 -26 -100 -44 l-73 -33 -72 33
c-40 18 -85 38 -100 44 -16 7 -28 19 -28 29 0 50 160 253 199 253 9 0 40 -24
68 -52z m-1417 -34 c0 -4 -15 -27 -33 -53 -19 -25 -56 -82 -83 -126 -63 -104
-168 -208 -271 -267 -44 -27 -85 -48 -91 -48 -15 0 -20 20 -32 138 -12 114 -9
126 39 135 25 5 56 24 204 126 69 48 267 118 267 95z m2796 -18 c92 -31 139
-56 251 -132 52 -36 108 -67 124 -71 48 -9 51 -21 39 -135 -12 -118 -17 -138
-32 -138 -6 0 -47 21 -91 48 -99 57 -209 163 -261 252 -22 36 -59 93 -83 127
-23 34 -43 64 -43 67 0 11 26 6 96 -18z m-2451 4 c4 -6 -7 -28 -24 -49 -17
-21 -48 -76 -71 -122 -22 -46 -46 -89 -53 -96 -10 -11 -28 -9 -92 8 -94 24
-118 36 -108 52 69 115 134 183 194 202 52 16 145 19 154 5z m2161 -5 c33 -10
62 -28 90 -57 50 -51 115 -148 108 -159 -4 -8 -102 -39 -165 -53 -33 -7 -39 0
-90 105 -22 45 -53 99 -70 120 -17 21 -28 43 -24 49 9 15 94 12 151 -5z
m-3238 -166 c3 -15 -38 -38 -95 -54 -26 -7 -103 2 -123 15 -11 7 -11 11 -1 24
29 35 213 47 219 15z m4315 10 c107 -22 101 -63 -8 -62 -93 1 -168 37 -138 66
10 11 83 8 146 -4z m-2694 -102 c8 -11 -21 -43 -141 -150 -165 -149 -187 -159
-240 -117 -116 91 13 224 256 264 106 18 112 18 125 3z m1091 -12 c90 -18 152
-47 204 -95 52 -48 62 -79 41 -119 -20 -39 -52 -61 -91 -61 -27 0 -53 19 -156
111 -171 155 -181 165 -174 178 8 13 67 8 176 -14z m-707 -54 l77 -39 78 39
c58 30 91 40 132 42 49 2 55 0 58 -19 2 -14 20 -29 53 -45 95 -44 132 -109
131 -227 0 -71 -5 -92 -33 -152 -23 -50 -42 -76 -66 -91 -32 -20 -35 -20 -59
-4 -44 28 -48 53 -25 137 12 41 21 87 21 102 0 40 -26 83 -61 101 -29 16 -198
58 -229 58 -31 0 -200 -42 -229 -58 -35 -18 -61 -61 -61 -101 0 -15 9 -60 20
-100 23 -81 18 -112 -23 -139 -47 -31 -91 6 -137 115 -17 42 -23 73 -22 132 1
119 39 184 131 228 31 14 51 30 51 40 0 9 3 20 8 24 15 16 110 -6 185 -43z
m-1879 -2 c14 -72 4 -164 -19 -172 -25 -10 -159 23 -208 51 -59 34 -112 93
-104 116 5 13 25 16 104 17 54 0 116 4 138 8 74 16 82 14 89 -20z m4109 14
c146 -6 155 -12 113 -68 -37 -49 -105 -85 -200 -108 l-80 -19 -18 22 c-19 23
-25 118 -11 168 5 21 10 23 37 17 17 -3 89 -8 159 -12z m-3491 -29 c95 -24
138 -44 138 -63 0 -21 -100 -139 -136 -161 -18 -11 -29 -12 -42 -4 -18 12 -86
219 -76 235 8 13 48 11 116 -7z m2788 -11 c0 -32 -47 -192 -62 -210 -21 -26
-47 -12 -117 62 -65 69 -84 106 -63 119 21 13 180 55 210 55 28 1 32 -2 32
-26z m-2967 -148 l30 -89 -27 -76 c-14 -41 -26 -87 -26 -102 0 -15 -4 -30 -10
-33 -21 -13 -191 130 -235 198 -18 28 -18 29 2 48 34 34 207 148 222 146 8 -1
27 -39 44 -92z m3186 30 c54 -36 106 -74 116 -85 17 -19 17 -21 0 -47 -44 -68
-214 -211 -235 -198 -6 3 -10 21 -10 39 0 18 -12 61 -26 97 -23 56 -25 69 -16
105 19 70 53 154 63 154 5 0 54 -29 108 -65z m-2788 -118 c-16 -49 -34 -61
-76 -53 -50 10 -46 37 12 81 40 31 49 34 61 21 12 -11 12 -21 3 -49z m2316 16
c49 -39 48 -59 -3 -69 -41 -8 -59 5 -74 52 -9 27 -9 38 0 49 14 17 19 15 77
-32z m-1237 -119 c17 -36 36 -64 41 -62 13 4 33 39 53 91 10 25 21 37 34 37
36 0 142 -131 142 -175 0 -23 -56 -102 -86 -122 -22 -14 -31 -15 -62 -4 -21 8
-47 22 -58 33 -21 19 -22 19 -73 -13 -43 -27 -56 -31 -79 -23 -30 11 -102 100
-102 127 0 45 105 177 141 177 13 0 28 -20 49 -66z m-1296 0 c38 -13 73 -16
160 -12 l111 5 33 -50 c23 -33 30 -53 24 -59 -6 -6 -36 -16 -69 -24 -76 -18
-348 -21 -368 -4 -29 24 -16 97 23 143 19 21 26 21 86 1z m2771 -21 c29 -43
34 -103 9 -124 -35 -29 -383 -9 -430 25 -15 11 -13 17 17 63 l34 50 115 -5
c89 -3 123 -1 150 11 57 25 76 21 105 -20z m-2125 -8 c36 -19 37 -25 8 -52
-56 -51 -130 -65 -145 -28 -8 22 57 93 85 94 13 1 36 -6 52 -14z m1494 -27
c41 -47 41 -59 3 -72 -31 -11 -93 13 -127 49 l-21 23 22 21 c38 35 81 28 123
-21z m-1843 -231 c4 -15 17 -47 28 -70 26 -53 26 -59 1 -82 -16 -14 -29 -16
-75 -10 -48 6 -69 17 -162 83 -59 42 -107 82 -108 87 0 6 48 11 123 11 68 1
126 5 130 8 3 4 17 6 31 4 17 -2 27 -11 32 -31z m2387 18 c6 -3 12 -8 12 -14
0 -13 -162 -128 -212 -151 -53 -24 -115 -26 -140 -3 -24 21 -23 35 7 91 14 26
25 56 25 68 0 21 3 21 148 17 81 -3 153 -6 160 -8z m-1699 -43 c36 -26 102
-114 99 -131 -5 -27 -221 -71 -348 -71 -108 0 -161 41 -126 95 16 25 109 74
221 116 59 23 116 19 154 -9z m936 -24 c100 -44 155 -84 155 -112 0 -28 -37
-54 -87 -62 -96 -14 -390 32 -401 64 -4 13 45 87 79 119 59 54 114 53 254 -9z"/>
<path d="M2782 6382 c-37 -11 -24 -26 39 -43 88 -24 160 -87 144 -127 -4 -12
-14 -7 -49 27 -34 34 -59 47 -112 62 -37 10 -69 17 -71 15 -9 -8 96 -91 144
-113 54 -25 140 -40 168 -29 13 5 5 20 -42 78 -67 86 -75 93 -128 118 -42 21
-55 22 -93 12z"/>
<path d="M3397 5583 l-38 -27 48 -22 c71 -32 163 -143 149 -180 -9 -24 -39 -1
-65 51 -16 32 -39 57 -77 82 -30 20 -57 33 -60 30 -9 -8 59 -127 88 -154 44
-42 198 -112 198 -90 0 18 -114 305 -126 318 -24 27 -73 24 -117 -8z"/>
<path d="M3545 5030 c118 -146 127 -190 54 -262 -43 -43 -51 -86 -25 -136 17
-33 152 -162 169 -162 19 0 95 120 108 172 17 62 2 112 -49 161 l-38 37 0 -88
c-1 -102 -33 -206 -62 -200 -20 4 -20 12 3 98 31 114 9 231 -63 334 -24 36
-135 126 -154 126 -4 0 21 -36 57 -80z"/>
<path d="M5125 6371 c-41 -19 -81 -58 -149 -144 -31 -39 -35 -48 -21 -53 28
-11 114 4 168 29 50 23 153 105 143 114 -2 2 -35 -5 -73 -16 -52 -16 -78 -30
-107 -60 -22 -22 -43 -38 -48 -35 -36 23 47 107 130 129 85 24 86 25 76 35
-20 19 -79 20 -119 1z"/>
<path d="M4497 5599 c-18 -10 -87 -146 -87 -171 0 -7 -12 -44 -25 -83 -14 -38
-25 -72 -25 -73 0 -2 19 -1 43 3 73 12 181 96 210 165 6 14 17 33 26 43 18 22
9 31 -23 23 -32 -8 -115 -91 -133 -133 -13 -33 -27 -41 -38 -23 -15 24 83 148
137 175 54 26 57 40 16 65 -36 22 -73 25 -101 9z"/>
<path d="M1620 6122 c-64 -68 -80 -101 -80 -168 0 -50 6 -74 35 -132 50 -99
56 -102 101 -52 21 23 57 52 80 66 62 37 94 78 94 122 0 46 -30 96 -68 116
-16 8 -34 22 -41 30 -23 27 -28 18 -35 -55 -6 -72 -48 -214 -71 -246 -28 -38
-28 2 -2 105 21 80 27 125 25 179 l-3 73 -35 -38z"/>
<path d="M6339 6124 c-2 -87 4 -131 31 -223 17 -60 24 -100 18 -106 -6 -7 -14
-4 -22 8 -24 32 -66 174 -72 246 -7 73 -12 82 -35 55 -7 -8 -25 -22 -41 -30
-63 -32 -88 -126 -48 -177 11 -14 51 -46 88 -71 38 -25 74 -56 82 -71 7 -14
18 -24 24 -22 16 5 75 106 86 147 5 19 10 58 10 85 0 57 -18 93 -80 156 l-40
41 -1 -38z"/>
<path d="M3376 3964 c-4 -27 -3 -60 1 -74 11 -35 56 -110 66 -110 20 0 46 47
47 83 0 33 -8 47 -54 95 l-54 56 -6 -50z"/>
<path d="M2225 3914 c7 -52 34 -113 58 -133 9 -6 32 -15 53 -18 31 -5 49 0
101 28 35 19 63 38 63 43 0 8 -11 6 -77 -11 -41 -10 -90 7 -135 46 -37 34 -41
40 -25 46 12 5 26 1 40 -12 46 -42 97 -54 138 -33 45 25 11 46 -104 65 -45 7
-90 17 -101 21 -17 7 -18 4 -11 -42z"/>
<path d="M3155 3903 c15 -36 25 -89 25 -135 0 -54 15 -68 75 -68 l36 0 -20 26
c-12 15 -21 41 -21 61 0 40 -12 67 -48 106 -29 31 -58 37 -47 10z"/>
<path d="M3392 3706 c-22 -13 -22 -13 -2 -31 27 -24 26 -71 -2 -96 -13 -11
-45 -35 -73 -52 -61 -39 -93 -94 -101 -175 -7 -63 1 -132 15 -132 5 0 11 22
15 49 6 49 58 163 95 211 16 20 22 22 32 13 10 -10 8 -18 -13 -40 -40 -43 -69
-107 -84 -185 -8 -40 -12 -74 -9 -76 12 -12 90 22 125 54 55 50 74 106 67 197
-5 70 10 137 30 137 4 0 20 -14 35 -32 l28 -33 -12 35 c-14 43 -49 99 -77 124
-11 11 -21 25 -21 33 0 16 -17 15 -48 -1z"/>
<path d="M2286 3659 c-104 -16 -177 -104 -196 -238 -6 -40 -8 -77 -4 -82 3 -5
18 3 33 19 16 15 64 51 109 80 59 39 91 69 123 114 23 34 53 70 66 81 13 12
23 24 23 28 0 9 -89 8 -154 -2z"/>
<path d="M1550 3109 c0 -19 9 -53 20 -77 71 -157 199 -232 396 -232 56 0 94 4
94 10 0 6 -17 10 -38 10 -63 0 -167 42 -257 103 -46 32 -185 169 -185 183 0 6
-7 17 -15 24 -13 11 -15 8 -15 -21z"/>
<path d="M1610 3121 c0 -5 34 -41 76 -80 117 -109 235 -171 356 -187 38 -5 52
-12 56 -26 3 -14 11 -18 26 -14 11 3 27 6 34 6 27 0 9 17 -53 48 -43 21 -96
61 -158 121 -117 111 -143 125 -225 124 -35 -1 -75 2 -88 7 -13 5 -24 6 -24 1z"/>
<path d="M4585 3982 c-54 -49 -75 -83 -75 -121 1 -30 27 -81 42 -81 3 0 18 19
35 43 36 50 47 97 36 149 l-8 37 -30 -27z"/>
<path d="M5758 3954 c-3 -3 -44 -11 -92 -19 -118 -19 -152 -40 -107 -65 35
-18 77 -11 120 21 27 19 49 28 59 24 14 -5 9 -14 -26 -46 -45 -40 -94 -56
-137 -45 -14 3 -36 9 -50 12 -45 11 -27 -10 38 -45 52 -28 70 -33 101 -28 46
7 62 20 86 67 31 62 37 154 8 124z"/>
<path d="M4798 3893 c-36 -39 -48 -66 -48 -106 0 -20 -9 -46 -21 -61 l-20 -26
36 0 c60 0 75 14 75 68 0 46 10 99 25 135 11 27 -18 21 -47 -10z"/>
<path d="M4537 3674 c-38 -44 -93 -142 -84 -151 3 -2 13 7 22 20 43 67 77 18
68 -100 -7 -91 12 -147 67 -197 35 -32 113 -66 125 -54 3 2 -1 36 -9 76 -14
72 -54 154 -89 183 -20 16 -18 49 3 49 25 0 120 -189 120 -240 0 -46 18 -27
26 27 8 56 -9 132 -42 184 -12 20 -47 51 -76 69 -29 18 -58 40 -65 49 -20 26
-15 68 9 85 24 17 24 17 -12 33 -23 9 -29 6 -63 -33z"/>
<path d="M5560 3662 c0 -5 10 -17 23 -29 13 -11 43 -47 66 -81 32 -45 64 -75
123 -114 45 -29 93 -65 109 -80 16 -17 30 -24 34 -18 4 6 1 43 -5 82 -18 115
-72 197 -153 227 -36 14 -197 24 -197 13z"/>
<path d="M6370 3120 c-8 -5 -46 -9 -85 -8 -90 2 -114 -11 -229 -121 -58 -55
-116 -99 -158 -121 -65 -33 -83 -50 -55 -50 6 0 22 -3 33 -6 15 -4 23 0 26 14
4 14 18 21 57 26 75 10 167 46 236 91 65 43 203 170 195 179 -3 3 -12 1 -20
-4z"/>
<path d="M6421 3107 c-13 -33 -168 -176 -233 -215 -71 -42 -157 -72 -208 -72
-22 0 -40 -4 -40 -10 0 -6 38 -10 94 -10 109 0 190 21 265 70 66 42 138 147
147 213 7 51 -9 67 -25 24z"/>
<path d="M3968 1063 c-26 -7 -22 -38 7 -53 21 -11 29 -11 50 0 56 30 12 71
-57 53z"/>
<path d="M2900 6998 c0 -89 16 -202 33 -237 6 -14 41 -45 77 -69 35 -23 71
-54 79 -70 12 -21 16 -23 19 -10 6 28 -36 166 -77 254 -35 74 -115 204 -126
204 -3 0 -5 -33 -5 -72z"/>
<path d="M5051 7011 c-57 -83 -114 -207 -141 -304 -24 -88 -24 -130 1 -85 8
16 44 47 79 70 36 24 71 55 78 70 17 37 34 171 30 248 l-3 65 -44 -64z"/>
<path d="M2985 7024 c85 -129 138 -256 158 -381 6 -40 15 -73 18 -73 12 0 32
100 31 157 -1 78 -45 166 -122 242 -34 34 -72 67 -83 73 l-21 11 19 -29z"/>
<path d="M2789 6882 c-60 -45 -94 -91 -82 -111 13 -21 43 -27 43 -8 0 7 23 35
51 62 46 44 59 74 34 81 -5 2 -26 -9 -46 -24z"/>
<path d="M5157 6903 c-15 -15 -5 -34 43 -79 28 -26 50 -54 50 -61 0 -20 30
-12 44 10 9 16 2 27 -52 78 -62 59 -73 65 -85 52z"/>
<path d="M3450 6626 c0 -5 15 -38 33 -75 29 -59 32 -75 32 -151 0 -78 -3 -91
-38 -157 -42 -82 -46 -126 -18 -189 28 -62 41 -64 41 -7 0 50 17 105 65 208
58 122 42 216 -56 318 -32 34 -58 58 -59 53z"/>
<path d="M4487 6571 c-93 -102 -109 -195 -52 -316 48 -103 65 -158 65 -208 0
-57 13 -55 41 7 28 63 24 107 -18 189 -35 67 -38 78 -38 157 0 77 3 92 33 153
19 38 32 70 29 73 -2 3 -29 -22 -60 -55z"/>
<path d="M1667 6573 c-10 -9 -9 -43 2 -43 5 0 11 6 14 13 6 17 -7 40 -16 30z"/>
<path d="M6317 6564 c-8 -8 3 -34 14 -34 5 0 9 9 9 20 0 19 -11 26 -23 14z"/>
<path d="M1608 4539 c-26 -26 -74 -60 -107 -76 -34 -15 -61 -31 -61 -34 0 -13
94 -19 133 -8 22 6 53 23 69 39 23 24 28 37 28 79 0 28 -3 50 -7 49 -5 0 -29
-23 -55 -49z"/>
<path d="M6330 4542 c0 -84 51 -125 153 -124 33 1 61 3 64 6 3 2 -14 14 -37
26 -65 33 -135 87 -150 115 -20 38 -30 30 -30 -23z"/>
<path d="M770 2705 c0 -2 17 -13 38 -24 79 -41 224 -194 207 -221 -3 -6 -58
42 -127 112 -66 68 -122 118 -125 112 -5 -16 83 -159 123 -199 18 -18 74 -53
125 -78 52 -26 102 -52 112 -59 14 -11 19 -10 27 2 14 22 12 43 -10 102 -39
105 -135 185 -278 232 -79 27 -92 30 -92 21z"/>
<path d="M7100 2671 c-110 -45 -187 -108 -225 -181 -20 -38 -36 -115 -29 -134
7 -18 34 -22 34 -6 0 6 51 34 113 64 l114 53 57 86 c70 108 77 124 47 108 -26
-15 -156 -143 -192 -191 -21 -27 -30 -32 -39 -23 -10 9 -5 22 23 60 37 50 119
132 172 170 25 19 27 22 10 22 -11 0 -49 -13 -85 -28z"/>
</g>
</svg>
