<?xml version="1.0" standalone="no"?>
<!DOCTYPE svg PUBLIC "-//W3C//DTD SVG 20010904//EN"
 "http://www.w3.org/TR/2001/REC-SVG-20010904/DTD/svg10.dtd">
<svg version="1.0" xmlns="http://www.w3.org/2000/svg"
 width="512.000000pt" height="512.000000pt" viewBox="0 0 512.000000 512.000000"
 preserveAspectRatio="xMidYMid meet">

<g transform="translate(0.000000,512.000000) scale(0.100000,-0.100000)"
fill="#fefefe" stroke="none">
<path d="M2494 5094 c-80 -54 -174 -137 -285 -252 -191 -196 -341 -407 -452
-633 l-62 -127 -82 -41 c-471 -235 -842 -638 -1036 -1126 -120 -303 -170 -667
-137 -995 l13 -127 -70 -114 c-216 -348 -355 -678 -378 -895 -5 -49 -3 -64 14
-92 26 -40 40 -46 188 -71 292 -50 514 -71 752 -71 l173 0 77 -64 c241 -200
565 -359 881 -430 177 -41 274 -50 480 -50 206 1 316 14 503 58 284 68 604
229 835 420 l77 64 180 1 c248 1 540 31 796 81 137 26 155 42 153 138 -4 185
-157 559 -366 896 l-81 130 12 101 c23 202 9 483 -33 680 -136 633 -560 1179
-1137 1465 l-86 43 -59 120 c-115 234 -263 441 -456 642 -159 166 -297 275
-348 275 -15 0 -45 -12 -66 -26z m224 -361 c83 -83 183 -195 228 -255 76 -104
187 -278 180 -285 -2 -2 -41 5 -87 16 -46 10 -119 25 -162 32 l-78 12 -84 103
c-150 182 -196 169 -396 -111 -279 -391 -416 -816 -395 -1226 l6 -126 -103
-30 -102 -30 -7 41 c-12 74 -8 379 7 496 50 407 199 773 453 1110 81 109 360
400 382 400 6 0 77 -66 158 -147z m99 -699 c429 -62 792 -243 1094 -544 294
-294 476 -646 544 -1060 19 -115 32 -370 18 -355 -5 6 -44 51 -85 100 -42 50
-90 103 -107 119 -18 17 -31 40 -31 54 0 42 -40 221 -71 321 -141 443 -496
835 -929 1025 -262 116 -599 169 -855 136 -38 -5 -71 -7 -73 -5 -5 4 44 99 86
168 l35 57 133 0 c73 0 182 -7 241 -16z m-1248 -326 c-10 -40 -24 -105 -30
-145 l-12 -72 -84 -71 c-217 -186 -405 -466 -499 -745 -154 -462 -106 -958
135 -1377 27 -46 47 -86 45 -89 -2 -4 -45 -10 -96 -13 -51 -4 -102 -10 -114
-12 -17 -5 -28 12 -81 123 -122 254 -178 478 -190 758 -28 654 290 1278 841
1654 50 34 93 61 97 61 4 0 -1 -33 -12 -72z m1236 -105 c50 -8 93 -18 97 -22
12 -10 56 -193 68 -282 14 -96 16 -337 3 -349 -4 -4 -46 -2 -93 6 -211 35
-431 35 -646 0 -83 -13 -84 -13 -89 8 -25 126 1 388 58 576 l14 44 69 13 c177
34 345 36 519 6z m411 -130 c33 -14 86 -44 120 -65 l61 -38 7 -76 c3 -43 6
-146 6 -231 0 -524 -158 -996 -455 -1358 -32 -38 -61 -71 -66 -73 -11 -5 -121
92 -160 140 l-30 38 45 55 c203 248 368 605 428 922 37 200 29 515 -18 691 -8
28 -9 28 62 -5z m573 -492 c85 -125 157 -272 195 -400 l16 -53 -28 18 c-68 45
-205 123 -280 159 l-83 39 8 151 c4 82 7 181 7 220 l-1 70 53 -59 c30 -33 81
-98 113 -145z m-2293 96 c0 -50 4 -145 8 -209 l7 -116 -108 -56 c-59 -30 -144
-78 -188 -105 -44 -27 -81 -46 -83 -42 -5 14 49 153 95 246 25 50 69 126 98
170 50 74 154 203 165 204 3 1 5 -41 6 -92z m1354 -331 c47 -9 86 -16 87 -16
2 0 -29 -103 -48 -164 l-13 -38 -46 6 c-204 26 -265 29 -388 17 -352 -34 -698
-154 -977 -338 -118 -78 -181 -129 -287 -231 -55 -53 -89 -79 -93 -72 -4 7
-10 78 -13 159 l-5 148 69 55 c314 251 718 414 1200 483 123 17 394 13 514 -9z
m990 -371 c209 -135 351 -277 531 -528 186 -261 340 -526 433 -749 45 -107 91
-256 83 -264 -16 -16 -541 -74 -667 -74 l-32 0 39 48 c22 26 56 71 77 100 l38
52 79 0 c96 0 134 17 155 66 18 43 12 66 -44 179 -209 422 -566 819 -941 1045
-41 25 -74 48 -74 53 1 4 13 57 28 117 l27 110 87 -47 c47 -25 129 -74 181
-108z m-1188 -36 c57 -5 109 -12 116 -15 10 -3 4 -22 -23 -72 -38 -69 -176
-272 -185 -272 -21 1 -228 325 -215 338 3 4 48 12 98 18 51 6 95 12 99 13 4 0
54 -4 110 -10z m-479 -164 c89 -161 175 -280 375 -520 196 -235 534 -441 912
-555 58 -17 112 -34 120 -37 11 -3 1 -17 -35 -49 -63 -56 -190 -144 -208 -144
-61 0 -304 117 -459 221 -500 334 -784 633 -964 1012 -23 50 -33 82 -27 88 13
13 205 80 222 77 8 -2 36 -43 64 -93z m-453 -157 c66 -145 180 -327 289 -463
22 -27 37 -53 34 -58 -9 -16 -240 -122 -337 -156 -80 -28 -311 -91 -334 -91
-26 0 -165 238 -207 353 l-18 48 104 105 c57 58 134 130 171 160 77 64 238
173 254 174 6 0 26 -33 44 -72z m1805 23 c109 -68 220 -160 343 -283 l103
-104 -24 -65 c-33 -87 -80 -179 -139 -271 l-49 -76 -127 33 c-184 49 -334 104
-477 178 -96 49 -94 45 -34 118 86 103 194 272 256 400 32 65 60 118 63 119 3
0 42 -22 85 -49z m-2923 -757 c9 -26 5 -40 -24 -100 -46 -91 -51 -116 -34
-158 26 -62 56 -70 241 -62 365 16 650 63 930 155 123 40 314 123 408 177 l78
45 32 -25 c18 -14 58 -49 91 -78 l59 -54 -139 -91 c-259 -169 -458 -249 -749
-297 -314 -53 -761 -45 -1165 20 -52 8 -96 17 -98 19 -6 5 18 87 55 185 37
102 126 289 194 409 l42 75 34 -95 c19 -52 39 -108 45 -125z m3592 77 c36 -55
66 -104 66 -109 0 -16 -126 -218 -177 -285 -64 -84 -232 -257 -318 -326 -572
-467 -1376 -558 -2040 -232 -150 74 -289 163 -260 168 11 2 81 15 155 30 l136
25 64 -32 c156 -79 355 -138 544 -161 137 -17 401 -6 530 21 525 111 954 441
1187 913 24 48 44 87 45 87 1 0 31 -45 68 -99z m-1481 -415 c84 -57 199 -129
255 -159 l104 -55 -64 -20 c-212 -68 -423 -87 -638 -57 -97 13 -275 55 -305
73 -9 4 19 24 80 56 51 26 164 97 252 156 87 60 159 109 161 109 2 1 72 -46
155 -103z"/>
</g>
</svg>
