<?xml version="1.0" standalone="no"?>
<!DOCTYPE svg PUBLIC "-//W3C//DTD SVG 20010904//EN"
 "http://www.w3.org/TR/2001/REC-SVG-20010904/DTD/svg10.dtd">
<svg version="1.0" xmlns="http://www.w3.org/2000/svg"
 width="512.000000pt" height="512.000000pt" viewBox="0 0 512.000000 512.000000"
 preserveAspectRatio="xMidYMid meet">

<g transform="translate(0.000000,512.000000) scale(0.100000,-0.100000)"
fill="#fefefe" stroke="none">
<path d="M25 5095 l-25 -24 0 -2506 c0 -1585 4 -2513 10 -2524 13 -25 64 -45
94 -37 15 4 43 32 72 73 182 259 365 403 552 435 169 28 370 -38 619 -206 125
-84 163 -96 227 -72 55 21 86 56 120 135 96 228 321 407 616 490 168 47 399
64 536 40 72 -12 118 -2 172 38 50 38 68 85 76 198 21 302 92 491 241 640 63
63 98 90 165 122 133 66 303 103 472 103 70 0 103 12 147 53 66 63 74 115 41
266 -41 185 -42 408 -4 540 72 252 274 440 597 556 78 28 117 60 117 95 0 10
-16 40 -35 66 -219 306 -286 463 -286 664 0 146 33 244 126 375 62 87 205 219
328 303 74 51 109 80 113 98 8 30 -12 81 -37 94 -11 6 -939 10 -2524 10
l-2506 0 -24 -25z m1498 -187 c-28 -55 -37 -144 -21 -214 l7 -32 -137 44 c-75
24 -279 91 -452 148 l-315 104 472 1 472 1 -26 -52z m941 -5 c-57 -95 -79
-181 -78 -303 1 -77 7 -122 22 -170 12 -35 20 -65 19 -67 -2 -1 -153 47 -337
108 -317 103 -337 112 -372 148 -74 78 -82 188 -21 269 55 73 47 72 445 72
l357 0 -35 -57z m1096 -7 c-57 -72 -112 -184 -135 -271 -39 -152 -8 -369 83
-577 l21 -47 -42 13 c-23 7 -216 70 -429 140 -433 142 -413 132 -469 251 -83
178 -49 380 86 503 l57 52 439 0 439 0 -50 -64z m1151 -4 c-368 -333 -423
-737 -162 -1179 17 -29 30 -53 29 -53 -2 0 -187 60 -412 133 l-408 133 -39 65
c-93 154 -149 332 -149 475 0 159 53 277 176 395 116 110 52 99 578 99 l461 0
-74 -68z m-3418 -329 l178 -57 -40 -40 c-51 -54 -81 -116 -88 -183 -5 -41 -9
-53 -20 -49 -15 6 -746 538 -772 562 -8 7 116 -30 275 -81 159 -52 369 -120
467 -152z m-434 -193 l374 -273 -55 -28 c-60 -30 -122 -93 -144 -145 -8 -19
-16 -34 -18 -34 -3 0 -105 140 -228 310 -308 429 -334 467 -318 454 8 -6 183
-134 389 -284z m-250 -193 c149 -207 271 -382 271 -387 0 -6 -13 -10 -30 -10
-53 0 -138 -40 -193 -90 l-54 -49 -38 127 c-21 70 -86 281 -145 470 -59 189
-102 338 -95 330 7 -7 134 -183 284 -391z m-268 -225 c60 -195 109 -357 109
-360 0 -4 -39 -7 -88 -7 -73 0 -96 -4 -144 -27 l-58 -27 1 497 0 497 35 -110
c20 -60 85 -269 145 -463z m1667 378 c168 -55 307 -102 310 -104 2 -3 -14 -14
-35 -24 -55 -28 -139 -106 -168 -156 -42 -72 -57 -128 -64 -238 l-6 -106 -260
189 c-289 211 -286 208 -288 324 -1 97 41 159 135 200 18 8 41 14 52 15 10 0
156 -45 324 -100z m999 -327 c216 -71 393 -131 393 -135 0 -3 -15 -11 -32 -17
-65 -23 -173 -95 -233 -156 -136 -139 -202 -349 -175 -566 6 -51 9 -93 7 -95
-2 -2 -160 111 -353 251 l-349 255 -25 67 c-20 56 -24 87 -25 178 0 94 3 116
22 150 28 53 103 122 159 147 47 20 150 46 194 47 14 1 202 -56 417 -126z
m-1312 -244 c151 -110 275 -202 275 -205 0 -2 -30 -18 -67 -36 -131 -63 -256
-219 -303 -377 l-16 -56 -217 305 c-198 278 -217 309 -217 346 0 89 42 158
122 198 34 17 68 26 100 26 47 0 56 -5 323 -201z m2428 -119 c221 -72 406
-132 411 -133 5 -2 -22 -20 -60 -41 -139 -76 -276 -196 -353 -309 -48 -70 -98
-182 -122 -272 -31 -114 -37 -343 -14 -489 9 -59 15 -110 13 -112 -6 -6 -801
574 -816 595 -28 40 -63 214 -65 321 -3 163 35 274 126 375 91 101 293 190
440 194 24 1 189 -48 440 -129z m-3127 -35 c23 -10 77 -78 227 -289 109 -152
197 -278 197 -279 0 -2 -37 -1 -83 1 -98 5 -186 -14 -261 -58 -56 -32 -153
-126 -185 -179 -16 -28 -21 -31 -26 -19 -4 9 -48 155 -99 325 -91 301 -93 309
-79 348 49 143 177 204 309 150z m-566 -186 c82 -25 82 -25 191 -387 56 -184
99 -335 97 -338 -3 -2 -31 1 -64 7 -129 24 -313 -12 -434 -86 l-55 -34 -3 355
-2 355 30 44 c19 28 48 52 82 69 56 28 100 32 158 15z m2099 -269 c255 -186
345 -257 333 -262 -9 -3 -48 -16 -87 -28 -158 -48 -310 -175 -397 -329 -40
-73 -98 -229 -125 -341 l-8 -34 -259 363 -259 363 7 83 c20 267 182 449 393
442 52 -2 57 -5 402 -257z m-1082 -295 c135 -43 131 -39 398 -415 135 -189
243 -345 242 -347 -2 -1 -30 2 -63 8 -33 6 -117 9 -189 7 -112 -4 -142 -8
-216 -35 -153 -53 -289 -163 -386 -312 l-41 -63 -27 88 c-15 49 -71 234 -124
410 l-98 321 23 68 c82 244 257 342 481 270z m2036 -401 c215 -157 393 -289
395 -293 1 -5 -30 -11 -70 -14 -107 -9 -261 -51 -358 -98 -281 -134 -440 -373
-499 -747 l-16 -104 -46 64 c-25 34 -148 204 -272 376 -259 358 -243 319 -207
505 25 127 47 194 97 290 44 86 153 199 230 240 73 39 185 66 276 66 l77 1
393 -286z m-2767 62 c29 -13 59 -35 67 -48 18 -28 261 -827 254 -834 -3 -3
-23 4 -44 15 -94 48 -230 66 -342 47 -135 -24 -276 -100 -418 -227 l-68 -60
-3 452 c-2 442 -2 453 19 496 74 153 361 238 535 159z m1334 -583 c41 -8 104
-26 140 -40 64 -24 67 -27 144 -136 44 -62 173 -241 288 -399 114 -158 208
-288 208 -290 0 -2 -53 -1 -117 0 -266 8 -551 -64 -774 -194 -105 -61 -277
-229 -331 -322 l-36 -64 -76 234 c-176 548 -228 723 -223 755 3 17 22 65 42
105 155 309 393 422 735 351z m-1155 -418 c38 -14 104 -48 147 -77 l77 -52 36
-116 c20 -63 85 -270 145 -459 60 -190 109 -346 107 -347 -1 -1 -36 18 -77 43
-104 62 -210 110 -310 140 -120 36 -291 38 -400 5 -140 -44 -231 -103 -373
-241 l-87 -86 0 424 0 423 117 116 c188 187 306 251 463 251 65 1 101 -5 155
-24z"/>
</g>
</svg>
