<?xml version="1.0" standalone="no"?>
<!DOCTYPE svg PUBLIC "-//W3C//DTD SVG 20010904//EN"
 "http://www.w3.org/TR/2001/REC-SVG-20010904/DTD/svg10.dtd">
<svg version="1.0" xmlns="http://www.w3.org/2000/svg"
 width="50.000000pt" height="50.000000pt" viewBox="0 0 50.000000 50.000000"
 preserveAspectRatio="xMidYMid meet">

<g transform="translate(0.000000,50.000000) scale(0.100000,-0.100000)"
fill="rgba(254, 254, 254, 0.5)" stroke="none">
<path d="M56 444 c-24 -23 -24 -365 0 -388 23 -24 365 -24 388 0 24 23 24 365
0 388 -23 24 -365 24 -388 0z m312 -111 c2 -16 -3 -22 -20 -25 -15 -2 -24 -11
-26 -25 -3 -19 1 -23 23 -23 21 0 26 -4 21 -16 -3 -9 -6 -20 -6 -25 0 -5 -9
-9 -20 -9 -18 0 -20 -7 -20 -75 0 -73 -1 -75 -25 -75 -24 0 -25 2 -25 75 0 68
-2 75 -20 75 -15 0 -20 7 -20 25 0 18 5 25 20 25 16 0 20 7 20 30 0 39 33 72
68 68 19 -2 28 -10 30 -25z"/>
</g>
</svg>
